HIERARCHY
ROOT Hips
{
    OFFSET 0.000000 0.000000 0.000000
    CHANNELS 6 Xposition Yposition Zposition Zrotation Yrotation Xrotation
    JOINT LeftUpLeg
    {
        OFFSET 9.162498 -10.205075 3.799697
        CHANNELS 3 Zrotation Yrotation Xrotation
        JOINT LeftLeg
        {
            OFFSET 14.513953 -39.876781 0.000000
            CHANNELS 3 Zrotation Yrotation Xrotation
            JOINT LeftFoot
            {
                OFFSET 14.224848 -39.082561 0.000000
                CHANNELS 3 Zrotation Yrotation Xrotation
                JOINT LeftToeBase
                {
                    OFFSET 1.314863 -3.612473 11.865319
                    CHANNELS 3 Zrotation Yrotation Xrotation
                    End Site
                    {
                        OFFSET 0.000000 0.000000 0.000000
                    }
                }
            }
        }
    }
    JOINT RightUpLeg
    {
        OFFSET -8.357156 -10.205075 3.799697
        CHANNELS 3 Zrotation Yrotation Xrotation
        JOINT RightLeg
        {
            OFFSET -14.859335 -40.825722 0.000000
            CHANNELS 3 Zrotation Yrotation Xrotation
            JOINT RightFoot
            {
                OFFSET -14.380747 -39.510799 0.000000
                CHANNELS 3 Zrotation Yrotation Xrotation
                JOINT RightToeBase
                {
                    OFFSET -1.301994 -3.577195 11.975215
                    CHANNELS 3 Zrotation Yrotation Xrotation
                    End Site
                    {
                        OFFSET 0.000000 0.000000 0.000000
                    }
                }
            }
        }
    }
    JOINT Spine
    {
        OFFSET -0.118984 11.716251 -0.958476
        CHANNELS 3 Zrotation Yrotation Xrotation
        JOINT Spine1
        {
            OFFSET 0.286171 11.765131 -0.177291
            CHANNELS 3 Zrotation Yrotation Xrotation
            JOINT Neck1
            {
                OFFSET -0.605701 9.054070 1.770648
                CHANNELS 3 Zrotation Yrotation Xrotation
                JOINT Head
                {
                    OFFSET 0.474750 9.351585 -1.739717
                    CHANNELS 3 Zrotation Yrotation Xrotation
                    End Site
                    {
                        OFFSET 0.000000 0.000000 0.000000
                    }
                }
            }
            JOINT LeftShoulder
            {
                OFFSET 0.000000 0.000000 0.000000
                CHANNELS 3 Zrotation Yrotation Xrotation
                JOINT LeftArm
                {
                    OFFSET 19.886068 4.132773 -3.087148
                    CHANNELS 3 Zrotation Yrotation Xrotation
                    JOINT LeftForeArm
                    {
                        OFFSET 30.054285 -0.000000 -0.000000
                        CHANNELS 3 Zrotation Yrotation Xrotation
                        JOINT LeftHand
                        {
                            OFFSET 19.665203 -0.000000 -0.000000
                            CHANNELS 3 Zrotation Yrotation Xrotation
                            End Site
                            {
                                OFFSET 0.000000 0.000000 0.000000
                            }
                        }
                    }
                }
            }
            JOINT RightShoulder
            {
                OFFSET 0.000000 0.000000 0.000000
                CHANNELS 3 Zrotation Yrotation Xrotation
                JOINT RightArm
                {
                    OFFSET -19.290640 5.282707 -0.565512
                    CHANNELS 3 Zrotation Yrotation Xrotation
                    JOINT RightForeArm
                    {
                        OFFSET -30.117897 -0.000000 -0.000000
                        CHANNELS 3 Zrotation Yrotation Xrotation
                        JOINT RightHand
                        {
                            OFFSET -20.553181 -0.000000 -0.000000
                            CHANNELS 3 Zrotation Yrotation Xrotation
                            End Site
                            {
                                OFFSET 0.000000 0.000000 0.000000
                            }
                        }
                    }
                }
            }
        }
    }
}
MOTION
Frames: 13
Frame Time: 0.016667
14.472241 97.727707 -30.018612 -0.521802 -29.595203 9.404106 -1.686001 -8.686404 -22.034401 5.808805 14.240511 44.209621 -0.145200 -6.942504 4.310202 2.479401 -9.800303 -28.332611 5.828605 7.451307 -28.013700 -4.193699 -12.413804 37.212002 0.033400 3.489098 2.644500 -0.138400 2.397700 -6.606102 2.203257 4.778794 15.358145 0.343100 1.439201 -5.937204 -13.296434 10.188313 -6.297344 1.064800 3.001800 9.535704 0.000000 0.000000 0.000000 -84.180000 -16.975800 28.572399 144.283707 -45.316898 -104.679604 0.000000 0.000000 3.720202 0.000000 0.000000 0.000000 78.247711 2.688699 48.690796 -140.904495 47.524799 -102.230797 0.000000 0.000000 10.649208 
13.145808 97.574745 -30.519836 -0.316199 -28.017500 8.793797 -2.804799 -8.244701 -23.040606 5.501805 13.927505 42.947910 -0.364400 -10.631604 4.235502 2.566800 -9.958401 -28.842100 5.439003 6.617903 -27.043713 -5.061603 -13.452804 41.088219 0.024800 3.467502 -0.925700 -0.136000 2.377000 -6.548702 2.258818 3.927389 15.337571 0.532700 1.211101 -5.969802 -12.699151 10.021845 -5.525764 1.178300 2.915101 9.414700 0.000000 0.000000 0.000000 -83.711899 -17.200100 28.958500 144.070816 -45.464317 -104.528038 0.000000 0.000000 4.594003 0.000000 0.000000 0.000000 78.528244 2.628992 47.793129 -140.421509 47.818211 -101.873718 0.000000 0.000000 10.937800 
11.770267 97.206169 -30.988886 -0.443199 -26.708307 8.346702 -3.715301 -7.742405 -23.420500 5.024902 13.411806 40.930305 -0.672300 -14.353600 4.727300 2.532300 -9.896503 -28.642099 5.286900 6.230103 -25.846708 -5.905903 -14.336607 44.603119 -0.001400 3.184803 -2.300802 -0.170900 2.663402 -7.342903 2.547860 3.476633 15.255198 0.638600 1.101500 -6.116400 -11.913685 9.663224 -4.650611 1.270701 2.770701 9.490104 0.000000 0.000000 0.000000 -83.505806 -17.819302 29.767403 143.865005 -45.605801 -104.381111 0.000000 0.000000 5.328398 0.000000 0.000000 0.000000 79.195816 2.376494 46.799316 -139.945404 48.102211 -101.520103 0.000000 0.000000 9.960204 
10.402630 96.559311 -31.355207 -0.782700 -25.344213 7.904305 -4.367602 -7.577201 -23.334608 4.555202 12.864704 38.864021 -1.042701 -17.734512 6.026103 2.268801 -9.404807 -27.070108 5.442602 5.845903 -24.113100 -6.543601 -14.935205 47.126217 -0.040300 1.581400 -3.574600 -0.266100 3.318501 -9.166800 3.122821 2.969770 14.960128 0.904500 0.992201 -6.069702 -11.549665 8.869167 -3.671741 1.753100 2.472001 9.589606 0.000000 0.000000 0.000000 -83.882584 -18.173096 30.895201 143.547012 -45.822208 -104.153526 0.000000 0.000000 8.202505 0.000000 0.000000 0.000000 79.869293 1.710301 46.067913 -139.368713 48.439503 -101.089737 0.000000 0.000000 6.957204 
9.061520 95.625175 -31.704031 -1.359200 -23.733492 7.540102 -4.666200 -7.635000 -23.344400 4.330400 12.587502 37.843498 -1.285102 -19.584911 7.974907 1.793500 -8.421902 -24.003202 6.082402 4.788003 -22.068611 -6.851498 -15.205600 48.310600 -0.055000 -1.875802 -5.538797 -0.151100 2.504701 -6.902505 3.992597 2.337885 14.660198 0.943500 0.843400 -5.901600 -10.886502 8.194394 -3.042135 1.968801 2.241901 9.525006 0.000000 0.000000 0.000000 -84.448105 -18.998703 31.889996 143.998596 -45.514099 -104.476501 0.000000 0.000000 6.705604 0.000000 0.000000 0.000000 80.270714 1.508102 44.822105 -139.448105 48.393513 -101.149208 0.000000 0.000000 5.421803 
7.695011 94.607475 -32.037052 -2.291000 -23.041107 7.383303 -4.434000 -7.492598 -23.151913 4.631003 12.955805 39.203320 -1.143400 -18.591101 5.287304 0.086800 -1.900200 -5.229800 7.213601 4.513899 -19.646088 -6.702003 -15.075806 47.738106 -0.067300 -4.584600 -8.567800 -0.001600 0.260400 -0.715500 4.835814 2.403351 14.137783 1.199901 0.899500 -5.858800 -10.047385 7.548760 -2.195478 2.139401 2.015901 9.627397 0.000000 0.000000 0.000000 -85.230507 -19.541109 33.200020 143.909897 -45.575001 -104.413200 0.000000 0.000000 5.974200 0.000000 0.000000 0.000000 80.313210 1.102903 43.453217 -139.659698 48.270199 -101.307198 0.000000 0.000000 5.978400 
6.320035 93.384911 -32.378536 -3.060902 -22.743214 7.072504 -3.853302 -7.210504 -22.955700 5.394401 13.814605 42.499901 -0.424000 -13.855505 -3.256102 0.743700 -5.508602 -15.365193 8.283700 4.486000 -16.742998 -6.225796 -14.643701 45.881401 -0.281200 -1.413701 -10.633500 -0.283900 3.426701 -9.469000 5.166451 2.446468 13.739641 1.634001 0.939600 -5.798103 -9.070107 7.019971 -1.634798 2.284500 1.834800 9.720896 0.000000 0.000000 0.000000 -85.851715 -19.979097 34.606998 143.830215 -45.629604 -104.356308 0.000000 0.000000 6.915202 0.000000 0.000000 0.000000 80.461708 1.331399 42.594803 -139.761093 48.210800 -101.382889 0.000000 0.000000 6.499302 
4.958041 92.067505 -32.723972 -3.717403 -22.674110 6.906505 -2.737801 -7.371804 -23.198706 6.125803 14.549106 45.484512 -0.450100 -16.562908 -6.377100 0.467800 -4.386905 -12.167800 9.338305 3.865800 -14.600505 -5.908003 -14.338604 44.611507 -0.369500 5.529203 -10.909400 -0.295600 3.496302 -9.663604 5.130018 2.390164 13.211153 2.178500 0.942200 -5.712103 -8.076415 6.607915 -1.388984 2.436600 1.694800 9.824803 0.000000 0.000000 0.000000 -86.259689 -20.888597 34.787197 144.903931 -44.880718 -105.118958 0.000000 0.000000 3.004999 0.000000 0.000000 0.000000 80.253899 2.121508 42.696995 -139.876999 48.142601 -101.469200 0.000000 0.000000 6.140302 
3.608465 90.737114 -33.193588 -4.392901 -22.311207 6.739402 -0.967500 -8.457400 -23.476200 6.681801 15.058000 47.660324 0.065100 -14.136400 -10.674300 1.517501 -7.779002 -22.044819 10.600099 2.864900 -13.539400 -5.980998 -14.409902 44.905499 -0.541300 9.293903 -13.714705 -0.855001 5.896902 -16.485613 5.029880 1.918963 13.067679 2.802801 0.843200 -6.050403 -7.178044 6.411563 -1.212351 2.708302 1.608801 9.901702 0.000000 0.000000 0.000000 -86.510735 -21.420313 35.394531 145.521500 -44.436119 -105.553009 0.000000 0.000000 4.215603 0.000000 0.000000 0.000000 80.286606 2.736099 43.066002 -140.235916 47.929504 -101.736122 0.000000 0.000000 4.257502 
2.363875 89.466003 -33.743919 -5.311202 -22.535715 6.651803 1.406200 -9.406902 -23.860607 7.353296 15.622400 50.198399 0.034600 -15.897607 -11.526510 1.556400 -7.873500 -22.330500 12.187804 1.685201 -14.137004 -6.334802 -14.745100 46.310902 -0.629300 11.776200 -15.299400 -0.994700 6.347300 -17.795507 5.191033 1.572675 13.392658 3.160101 0.778300 -6.288200 -6.494805 6.298002 -1.593158 2.953300 1.558801 9.979095 0.000000 0.000000 0.000000 -86.539375 -22.236204 35.439198 146.367722 -43.810516 -106.142143 0.000000 0.000000 5.600703 0.000000 0.000000 0.000000 80.697800 3.908300 43.607201 -140.473618 47.786812 -101.912346 0.000000 0.000000 1.891102 
1.402069 88.473145 -34.124352 -6.608101 -23.371807 6.798802 4.012201 -10.230207 -24.313608 8.119500 16.206499 52.992001 0.146000 -15.798812 -12.576200 2.136000 -9.143800 -26.246113 13.888902 0.403800 -15.023108 -6.794105 -15.156004 48.091137 -0.713400 13.747901 -16.705606 -0.497500 4.522204 -12.550600 6.253375 1.604178 13.671212 2.768602 0.807800 -6.484608 -5.758914 6.121954 -1.829662 3.133800 1.491201 10.093002 0.000000 0.000000 0.000000 -86.357529 -22.603804 35.300499 147.163330 -43.204205 -106.689949 0.000000 0.000000 5.940500 0.000000 0.000000 0.000000 81.593636 5.137499 44.216816 -140.856216 47.554424 -102.195221 0.000000 0.000000 -0.135600 
0.570084 87.926765 -34.297070 -7.131500 -24.924007 7.082701 5.379902 -10.569902 -24.690605 8.769899 16.657301 55.290905 0.158501 -15.920804 -12.772303 3.419700 -11.345302 -33.453499 14.634002 -0.300600 -16.409204 -7.176599 -15.478810 49.539200 -0.731101 14.609314 -17.166700 -0.694200 5.326200 -14.841299 6.459797 1.937125 13.382533 2.338300 0.880200 -6.469103 -5.074173 6.179725 -1.940445 3.167201 1.501800 10.155908 0.000000 0.000000 0.000000 -85.926315 -22.670212 34.819618 147.650604 -42.823997 -107.022301 0.000000 0.000000 5.281301 0.000000 0.000000 0.000000 82.418221 6.234799 44.942513 -140.820007 47.576515 -102.168427 0.000000 0.000000 -0.164000 
-0.221260 87.823479 -34.212967 -6.234006 -27.080299 6.376104 4.617400 -10.367306 -24.153400 9.310504 17.003401 57.158016 0.208900 -13.922206 -12.101604 3.273099 -11.124500 -32.700901 13.595400 0.020600 -16.309999 -7.347000 -15.617299 50.174801 -0.537598 16.521601 -16.418793 -0.492300 4.498500 -12.483500 5.171753 2.457295 13.324600 2.448102 0.985500 -6.178705 -4.809368 6.623455 -2.003152 3.370602 1.604301 10.348003 0.000000 0.000000 0.000000 -85.969215 -22.213495 34.137993 148.041794 -42.513901 -107.287399 0.000000 0.000000 4.804700 0.000000 0.000000 0.000000 82.627998 6.913700 46.293499 -140.877136 47.541603 -102.210617 0.000000 0.000000 3.297901 
